# xmcd
#
# Track frame offsets:
#	150
#	9966
#	22002
#	30572
#	36034
#	40120
#	50806
#	58948
#	70039
#	79624
#	86797
#	94682
#	106007
#	113726
#	118185
#	132309
#	141877
#	148846
#	160782
#	169416
#	179758
#	192754
#	202666
#	218788
#	231445
#
# Disc length: 3269 seconds
#
# Revision: 1
# Processed by: cddbd v1.5.2PL0 Copyright (c) Steve Scherf et al.
# Submitted via: audiograbber 1.83.01
#
DISCID=600cc319
DTITLE=Various Artist - Die 50 schönsten deutschen Volkslieder
DYEAR=1900
DGENRE=
TTITLE0=Dresdner Kreuzchor - Wohlauf in Gottes schöne Welt
TTITLE1=Berliner Männerchor - Frühlingslied
TTITLE2=Peter Schreier - Sah ein Knab ein Röslein steh'n
TTITLE3=Regensburger Domspatzen - Kommt ein Vogerl geflogen
TTITLE4=Männerchor des Rundfunkchores Berlin - Ein Jäger aus Kurpfalz
TTITLE5=Hermann Prey - Im schönsten Wiesengrunde
TTITLE6=Thomanerchor Leipzig - Bald gras' ich am Neckar
TTITLE7=Dresdner Kreuzchor - Wach auf, meins Herzens Schöne
TTITLE8=Männerchor des Leipziger Rundfunks - In einem kühlen Grunde 
TTITLE9=Dresdner Kreuzchor - An der Saale hellem Strande
TTITLE10=Hermann Prey and Pamela Cobum - Wie komm ich denn zur Tür herein
TTITLE11=Berliner Männerchor - Ännchen von Thara
TTITLE12=Dresdner Kreuzchor - Ein Sträußchen am Hute
TTITLE13=Tölzer Knabenchor - Wem Gott will rechte Gunst erweisen
TTITLE14=Thomanerchor Leipzig - Mein Schatz ist auf die Wanderschaft hin
TTITLE15=Männerchor des Leipziger Rundfunks - Im alten Fass zu Heidelberg
TTITLE16=Hermann Prey - Wie lieblich schallt durch Busch und Wald
TTITLE17=Dresdner Kreuzchor - Ich ging durch einen grasgrünen Wald
TTITLE18=Männerchor des Dresdner Kreuzchor - Mit Lieb bin ich umfangen
TTITLE19=Hermann Prey and Pamela Cobum - Schwesterlein, wann gehen wir nach Haus
TTITLE20=Dresdner Kreuzchor - Sie gleicht wohl einem Rosenstock
TTITLE21=Rundfunk-Jugendchor Wemingerode - Verstohlen geht der Mond auf
TTITLE22=Dresdner Kreuzchor - Die Blümelein, sie schlafen
TTITLE23=Hermann Prey - Der Mond ist aufgegangen
TTITLE24=Männerchor des Rundfunkchores Berlin - Die Nacht (Wie schön bist du, f
TTITLE24=reundliche Stille)
EXTD=
EXTT0=
EXTT1=
EXTT2=
EXTT3=
EXTT4=
EXTT5=
EXTT6=
EXTT7=
EXTT8=
EXTT9=
EXTT10=
EXTT11=
EXTT12=
EXTT13=
EXTT14=
EXTT15=
EXTT16=
EXTT17=
EXTT18=
EXTT19=
EXTT20=
EXTT21=
EXTT22=
EXTT23=
EXTT24=
PLAYORDER=
